<svg viewBox="0 0 200 200" xmlns="http://www.w3.org/2000/svg">
  <rect width="200" height="200" fill="#eef2ec"/>
  <path d="M78 70 L78 100 Q78 105 82 105 L82 130 Q82 140 92 140 L118 140 Q128 140 128 130 L128 105 Q132 105 132 100 L132 68 Q132 62 126 62 Q120 62 120 68 L120 88 L114 88 L114 60 Q114 54 108 54 Q102 54 102 60 L102 88 L96 88 L96 62 Q96 56 90 56 Q84 56 84 62 L84 90 L80 90 L80 70 Q80 66 78 70 Z" fill="#16241c"/>
  <circle cx="150" cy="140" r="14" fill="#3fae29" opacity="0.55"/>
  <circle cx="168" cy="120" r="9" fill="#3fae29" opacity="0.35"/>
</svg>
